<svg version="1.1" id="Layer_1" xmlns="http://www.w3.org/2000/svg" xmlns:xlink="http://www.w3.org/1999/xlink" x="0px" y="0px"
	 width="100%" viewBox="0 0 3464 1155" enable-background="new 0 0 3464 1155" xml:space="preserve">
<path fill="none" opacity="1.000000" stroke="none" 
	d="
M2378.000000,1156.000000 
	C1585.333374,1156.000000 793.166687,1156.000000 1.000000,1156.000000 
	C1.000000,771.000000 1.000000,386.000000 1.000000,1.000000 
	C1155.666626,1.000000 2310.333252,1.000000 3465.000000,1.000000 
	C3465.000000,386.000000 3465.000000,771.000000 3465.000000,1156.000000 
	C3102.833252,1156.000000 2740.666748,1156.000000 2378.000000,1156.000000 
M158.200867,753.421997 
	C144.933594,748.736694 136.601349,739.095642 134.428253,725.654846 
	C131.993622,710.596436 130.466202,695.223877 130.392349,679.979004 
	C129.982193,595.316833 130.133820,510.651947 130.093201,425.987976 
	C130.092850,425.239685 130.093170,424.491364 130.093170,423.743073 
	C131.536423,424.944061 132.292801,426.313934 132.919067,427.740875 
	C182.347504,540.362061 231.786835,652.978516 281.091095,765.654053 
	C282.704315,769.340637 284.680084,770.211182 288.470001,770.341553 
	C292.586487,770.483215 292.981476,767.840942 293.977417,765.294434 
	C335.016113,660.363159 376.047546,555.428955 417.088074,450.498444 
	C418.743256,446.266510 420.476837,442.065216 422.173889,437.849670 
	C422.427673,437.910889 422.681427,437.972107 422.935211,438.033325 
	C422.935211,439.138306 422.935211,440.243256 422.935211,441.348236 
	C422.933685,531.678955 422.950897,622.009644 422.890381,712.340393 
	C422.886169,718.660645 422.493530,724.996460 421.958832,731.297607 
	C420.482880,748.691833 413.644440,755.777649 396.276245,758.050171 
	C390.566284,758.797241 384.823425,759.292969 379.281860,759.883789 
	C379.281860,763.797607 379.281860,767.201904 379.281860,769.979797 
	C443.532562,769.979797 507.428253,769.979797 571.518921,769.979797 
	C571.518921,766.895020 571.518921,763.610901 571.518921,759.900208 
	C566.201416,759.269348 560.922058,758.818115 555.702576,757.989380 
	C542.605530,755.909973 536.982117,750.546936 534.831116,737.583252 
	C533.826233,731.526367 533.178894,725.332336 533.171814,719.199524 
	C533.063293,625.535950 533.046997,531.872131 533.163513,438.208618 
	C533.172180,431.249664 533.982727,424.232483 535.081726,417.347931 
	C536.733704,406.999023 541.941650,401.836731 552.167480,399.891479 
	C558.519714,398.683075 564.957214,397.922485 571.407837,396.953186 
	C571.407837,393.372650 571.407837,389.966492 571.407837,387.011414 
	C564.631653,387.011414 558.170166,386.974762 551.709290,387.017395 
	C512.047058,387.279144 472.385162,387.604858 432.722595,387.748932 
	C429.395966,387.761047 427.923309,388.639069 426.679626,391.854828 
	C402.558319,454.223999 378.278381,516.531799 354.033630,578.853149 
	C349.222748,591.219666 344.422516,603.590210 339.308472,616.754150 
	C338.522156,615.139038 338.152069,614.432800 337.828247,613.705994 
	C325.535675,586.119263 313.240570,558.533569 300.959869,530.941528 
	C280.039795,483.938812 259.086914,436.950562 238.312714,389.883453 
	C236.979080,386.861938 235.467270,386.016815 232.418915,386.191742 
	C225.100845,386.611603 217.766922,386.955963 210.438843,386.967499 
	C166.820801,387.036041 123.202591,387.001404 79.320633,387.001404 
	C79.320633,389.974762 79.320633,393.413940 79.320633,396.952026 
	C85.755836,397.929413 92.178421,398.781128 98.553459,399.902924 
	C107.536369,401.483612 113.518059,406.839600 114.910843,415.776642 
	C116.467560,425.765625 117.636528,435.931274 117.664505,446.023682 
	C117.879326,523.520874 117.919052,601.019409 117.645775,678.516235 
	C117.593033,693.471741 116.446243,708.476624 114.869164,723.359558 
	C113.068611,740.351440 104.341515,752.485291 87.341911,757.600586 
	C84.662682,758.406860 81.956245,759.122681 79.330116,759.861206 
	C79.330116,763.587158 79.330116,767.019775 79.330116,769.975647 
	C114.633560,769.975647 149.671219,769.975647 184.772400,769.975647 
	C184.772400,766.817932 184.772400,763.401062 184.772400,760.547546 
	C175.892899,758.227600 167.391418,756.006470 158.200867,753.421997 
M779.740784,382.113403 
	C762.934265,385.500732 746.472351,389.992737 730.758484,397.004425 
	C686.812988,416.613312 654.385193,448.018951 635.120850,492.166595 
	C613.095154,542.642395 611.311035,594.833496 625.940186,647.403320 
	C640.013245,697.974854 671.464172,734.877625 719.054993,757.078308 
	C767.793640,779.814392 819.097961,783.332825 871.294067,773.059753 
	C951.425049,757.288635 1008.371277,698.873352 1023.135620,618.475403 
	C1028.142944,591.208923 1028.170044,563.841736 1024.065674,536.431030 
	C1019.793518,507.899567 1010.222900,481.342560 993.759399,457.616180 
	C962.596863,412.706177 917.931335,390.301453 865.189087,381.964722 
	C837.023010,377.512665 808.796326,377.801697 779.740784,382.113403 
M3183.996094,674.509705 
	C3199.368652,696.448975 3214.801758,718.346130 3230.087402,740.345703 
	C3237.348145,750.795837 3234.761719,756.326843 3222.081543,758.100342 
	C3221.586670,758.169556 3221.089844,758.237793 3220.591553,758.270569 
	C3214.146973,758.694702 3207.702148,759.112244 3201.174072,759.536926 
	C3201.174072,763.287048 3201.174072,766.969360 3201.174072,769.693237 
	C3263.630127,769.693237 3325.671875,769.693237 3387.765869,769.693237 
	C3387.765869,766.663025 3387.765869,763.059937 3387.765869,759.192383 
	C3378.081543,759.345886 3371.263184,754.507263 3365.739746,747.336121 
	C3362.896484,743.644592 3359.905273,740.058411 3357.216309,736.258057 
	C3321.855713,686.278503 3286.532959,636.272278 3251.211426,586.264954 
	C3239.797607,570.105530 3228.416016,553.923401 3216.987549,537.705566 
	C3239.595703,510.060028 3261.764893,482.371124 3284.582764,455.227600 
	C3303.936768,432.204407 3324.773193,410.697784 3352.919678,398.035217 
	C3353.849121,397.617157 3354.812500,396.219299 3354.905762,395.199982 
	C3355.173096,392.281860 3355.000000,389.323425 3355.000000,387.042664 
	C3312.996338,387.042664 3271.620850,387.042664 3230.269043,387.042664 
	C3230.269043,390.237823 3230.269043,393.651001 3230.269043,397.260254 
	C3232.315918,397.551239 3234.113525,397.828217 3235.917236,398.059998 
	C3258.512939,400.963684 3271.125000,418.112457 3267.255615,440.454041 
	C3265.466064,450.787567 3261.902344,460.586273 3255.756104,468.862366 
	C3242.270020,487.021820 3228.013916,504.609497 3214.058350,522.420044 
	C3212.772705,524.060913 3211.387939,525.624207 3209.891113,527.412659 
	C3185.514160,492.739990 3161.495117,458.586334 3137.491211,424.422363 
	C3134.624268,420.341675 3131.560547,416.364044 3129.081055,412.054932 
	C3125.710205,406.197205 3127.357910,402.290009 3133.666504,400.060059 
	C3135.069580,399.564209 3136.534668,399.111328 3138.004395,398.959137 
	C3145.564209,398.176270 3153.134766,397.497955 3161.021484,396.752899 
	C3161.021484,394.965179 3161.021240,393.151917 3161.021240,391.338684 
	C3161.021240,389.571747 3161.021484,387.804840 3161.021484,386.860535 
	C3098.834961,386.860535 3037.258057,386.860535 2975.443359,386.860535 
	C2975.443359,389.785400 2975.443359,393.229919 2975.443359,397.137054 
	C2985.575928,397.646790 2993.179932,402.798187 2999.063477,410.840088 
	C3001.126709,413.660278 3003.334961,416.376923 3005.339355,419.237396 
	C3037.991455,465.834900 3070.623535,512.446716 3103.256592,559.057617 
	C3113.076660,573.084045 3122.886475,587.117615 3132.640137,601.060669 
	C3132.233398,601.771118 3132.043945,602.233215 3131.743896,602.606628 
	C3107.348145,632.983643 3083.406982,663.741760 3058.401367,693.608459 
	C3036.288818,720.019836 3011.807129,743.998169 2979.873291,758.808289 
	C2978.835449,759.289490 2977.830566,760.881653 2977.694580,762.058228 
	C2977.375244,764.820190 2977.592285,767.644165 2977.592285,769.982910 
	C3026.664551,769.982910 3075.226318,769.982910 3123.868164,769.982910 
	C3123.868164,766.837219 3123.868164,763.412170 3123.868164,759.713623 
	C3121.876953,759.421326 3120.084717,759.153687 3118.291260,758.895813 
	C3098.051514,755.986694 3084.101562,744.716919 3080.316162,727.874939 
	C3077.603516,715.806091 3078.768799,703.704834 3083.737061,692.641418 
	C3088.940430,681.054749 3094.892334,669.543274 3102.266602,659.252747 
	C3113.927246,642.980652 3127.046387,627.753845 3139.878418,611.671143 
	C3154.749512,632.853577 3169.165771,653.388062 3183.996094,674.509705 
M1972.045288,684.538635 
	C1968.188354,692.616943 1964.834229,700.985352 1960.374268,708.715881 
	C1949.750854,727.129700 1935.338501,742.043030 1916.068237,751.374329 
	C1894.663696,761.739136 1871.906616,758.979248 1849.422852,756.274048 
	C1843.481201,755.559204 1839.218018,751.108215 1838.041382,745.033936 
	C1836.908813,739.187988 1836.107910,733.175415 1836.087036,727.232727 
	C1835.923096,680.404236 1835.978760,633.575012 1835.983032,586.745972 
	C1835.983154,585.475830 1836.165039,584.205750 1836.296143,582.489746 
	C1884.711548,582.806335 1907.118286,611.743958 1917.357300,654.271973 
	C1921.260864,654.271973 1925.055542,654.271973 1929.390991,654.271973 
	C1925.669189,602.880432 1924.836426,551.698425 1927.541016,500.431702 
	C1923.095947,500.431702 1919.180054,500.431702 1915.192261,500.431702 
	C1910.727783,521.452698 1900.599976,539.153381 1885.466919,553.876526 
	C1871.810547,567.163147 1855.366821,573.331421 1835.971924,571.757690 
	C1835.971924,570.588501 1835.971924,569.774475 1835.972046,568.960388 
	C1835.975586,523.131226 1835.950439,477.302063 1836.024902,431.473053 
	C1836.032715,426.657715 1836.439453,421.821930 1836.986206,417.032776 
	C1838.231323,406.127350 1842.908691,401.096863 1853.707886,400.052032 
	C1862.302368,399.220551 1870.998169,398.826324 1879.626099,399.064880 
	C1908.680908,399.868286 1931.067261,413.410400 1947.884888,436.468079 
	C1960.752686,454.110138 1967.235352,474.542664 1971.956177,495.588745 
	C1973.507202,502.503021 1974.813721,509.472107 1976.241699,516.463989 
	C1979.984741,516.463989 1983.311279,516.480774 1986.637085,516.444458 
	C1987.095459,516.439453 1987.550781,516.170837 1988.312012,515.926514 
	C1985.167358,472.722046 1988.016846,429.583771 1990.481934,387.031799 
	C1889.020752,387.031799 1788.150635,387.031799 1687.301758,387.031799 
	C1687.301758,390.285034 1687.301758,393.580200 1687.301758,396.934509 
	C1693.730957,397.912933 1699.981812,398.793060 1706.206665,399.828339 
	C1715.413574,401.359497 1721.569214,406.733704 1722.975952,415.874084 
	C1724.563965,426.191101 1725.712036,436.691559 1725.736694,447.115295 
	C1725.944946,535.273438 1725.873779,623.432251 1725.810303,711.590820 
	C1725.805298,718.579834 1725.481323,725.590637 1724.868408,732.552917 
	C1723.321045,750.127136 1717.889893,755.785217 1700.435913,758.379150 
	C1696.062256,759.029053 1691.645996,759.391846 1687.514282,759.856812 
	C1687.514282,763.856201 1687.514282,767.251221 1687.514282,770.005859 
	C1792.303467,770.005859 1896.691772,770.005859 2001.340332,770.005859 
	C1997.324829,723.443054 1996.975952,676.701416 1999.123413,629.704590 
	C1994.994263,629.704590 1991.199829,629.704590 1988.246460,629.704590 
	C1982.883667,647.900085 1977.592651,665.852173 1972.045288,684.538635 
M2072.002197,464.632294 
	C2066.116211,504.911804 2080.310059,537.871338 2110.417725,563.745239 
	C2128.532715,579.313171 2148.329834,592.982910 2167.820068,606.875183 
	C2186.001465,619.834412 2204.180664,632.680420 2220.252441,648.314575 
	C2236.761475,664.373718 2245.974121,683.461182 2246.776611,706.675110 
	C2247.525391,728.353699 2237.077881,745.949707 2217.341064,755.090271 
	C2206.403076,760.155945 2194.799561,761.968872 2182.885986,761.950378 
	C2148.965576,761.897827 2123.413818,747.742126 2107.468506,717.208313 
	C2098.789062,700.587830 2092.553223,683.105225 2089.125977,664.750305 
	C2086.205322,649.106384 2084.308350,633.271362 2081.935791,617.369019 
	C2078.420166,617.369019 2074.390137,617.369019 2070.551270,617.369019 
	C2070.001465,669.835632 2069.455566,721.929626 2068.908691,774.093140 
	C2072.578125,774.093140 2076.611084,774.093140 2080.580078,774.093140 
	C2081.104980,771.063171 2081.464111,768.425354 2082.038574,765.835266 
	C2082.612061,763.249084 2083.208008,760.638367 2084.133057,758.165161 
	C2086.767822,751.121033 2090.706299,749.203003 2097.754395,751.646240 
	C2100.874023,752.727600 2103.922119,754.135315 2106.812744,755.737793 
	C2124.741699,765.677856 2143.986328,771.781494 2164.117676,775.026306 
	C2189.443604,779.108276 2214.910645,779.176025 2240.299561,775.802490 
	C2261.812256,772.943970 2282.758301,767.717285 2301.950928,757.125427 
	C2322.456543,745.808899 2339.700928,730.716064 2347.703857,708.262329 
	C2363.489502,663.972107 2353.414551,624.738708 2321.071533,591.222107 
	C2302.478027,571.953796 2279.827881,557.627319 2258.323730,541.952087 
	C2239.776611,528.432678 2220.742920,515.551697 2202.605957,501.507812 
	C2184.654053,487.607117 2172.255127,470.257263 2171.225098,446.148590 
	C2170.290527,424.265839 2180.598633,405.851166 2201.077393,397.925018 
	C2220.482910,390.414246 2240.090820,391.280212 2258.599609,400.833252 
	C2283.234375,413.548065 2297.672119,435.225861 2307.987549,460.074799 
	C2315.437744,478.021667 2319.453125,496.818054 2321.047363,516.167297 
	C2325.400879,516.167297 2329.484863,516.167297 2333.324463,516.167297 
	C2334.066650,472.070099 2334.802979,428.321350 2335.542480,384.367065 
	C2331.925537,384.367065 2328.143799,384.367065 2324.440674,384.367065 
	C2322.939697,390.011017 2321.841553,395.734589 2319.870361,401.139954 
	C2317.541016,407.527618 2313.558594,409.328705 2307.235596,406.983917 
	C2302.440430,405.205566 2297.880859,402.734894 2293.340820,400.336609 
	C2278.010498,392.238403 2262.273193,384.987518 2245.089844,382.099976 
	C2210.451660,376.279205 2176.048340,377.313232 2142.508545,388.591339 
	C2105.690674,400.971649 2079.452393,423.614410 2072.002197,464.632294 
M1152.359253,625.127197 
	C1172.157593,672.238159 1191.993408,719.333496 1211.673706,766.493713 
	C1213.036743,769.760193 1214.432373,770.688843 1218.119995,770.602051 
	C1233.932007,770.229980 1249.761841,770.225586 1265.574951,770.563293 
	C1269.380981,770.644653 1270.898682,769.923950 1272.210693,766.216370 
	C1299.387329,689.417786 1326.608887,612.634460 1354.116333,535.953796 
	C1364.700439,506.449493 1375.325928,476.924194 1387.237671,447.944885 
	C1395.037231,428.969666 1407.624390,412.905701 1424.738403,400.937744 
	C1431.498901,396.210083 1432.199097,394.635986 1430.309326,387.034180 
	C1392.912476,387.034180 1355.663574,387.034180 1318.163818,387.034180 
	C1318.163818,390.034821 1318.163818,393.464233 1318.163818,397.110291 
	C1321.996460,397.621124 1325.843018,397.800415 1329.522339,398.679626 
	C1349.745850,403.512207 1360.640381,416.883575 1362.005615,438.058258 
	C1363.500244,461.241821 1358.655396,483.529144 1351.267944,505.149506 
	C1335.441284,551.468750 1318.849609,597.526855 1302.550171,643.684448 
	C1299.082397,653.504639 1295.524170,663.292908 1291.804199,673.663330 
	C1291.033813,672.066772 1290.560425,671.209961 1290.194580,670.309509 
	C1259.787231,595.460876 1229.311157,520.639893 1199.098389,445.712769 
	C1195.771729,437.462616 1193.292847,428.729980 1191.615845,419.991760 
	C1189.636963,409.680969 1194.156494,403.227783 1204.327515,400.874695 
	C1212.376709,399.012543 1220.633423,398.047546 1228.939941,396.660431 
	C1228.939941,393.418182 1228.939941,390.005524 1228.939941,387.025574 
	C1165.616577,387.025574 1102.575317,387.025574 1039.334473,387.025574 
	C1039.334473,390.116608 1039.334473,393.520386 1039.334473,397.158478 
	C1050.206543,399.076294 1056.959717,406.284485 1062.436890,414.896301 
	C1065.276245,419.360626 1067.873779,424.061523 1069.925903,428.931335 
	C1097.372559,494.064728 1124.703491,559.246887 1152.359253,625.127197 
M2574.633789,399.940643 
	C2582.144531,398.934967 2589.655273,397.929321 2597.041992,396.940216 
	C2597.041992,393.176727 2597.041992,389.906128 2597.041992,387.020935 
	C2532.910156,387.020935 2469.029541,387.020935 2404.911621,387.020935 
	C2404.911621,390.093903 2404.911621,393.511322 2404.911621,396.966705 
	C2411.389160,397.952087 2417.641602,398.807709 2423.858643,399.872070 
	C2432.618896,401.371857 2438.409912,406.523224 2440.256592,415.150330 
	C2441.711182,421.946167 2442.870850,428.963623 2442.885742,435.885376 
	C2443.085449,528.874146 2443.083496,621.863342 2443.043945,714.852478 
	C2443.041016,721.500977 2442.552490,728.166870 2441.950684,734.793945 
	C2440.607666,749.584839 2434.677490,755.836731 2420.076904,758.049683 
	C2415.038086,758.813477 2409.956299,759.292542 2405.053955,759.882385 
	C2405.053955,763.808655 2405.053955,767.194702 2405.053955,770.008301 
	C2509.841553,770.008301 2614.245605,770.008301 2718.708984,770.008301 
	C2715.093994,721.649414 2713.910400,672.984070 2716.662354,624.218750 
	C2712.295410,624.218750 2708.345459,624.218750 2704.381104,624.218750 
	C2703.929199,626.017334 2703.485596,627.603943 2703.133301,629.210632 
	C2693.746338,672.038757 2673.198486,708.564575 2641.009033,738.359863 
	C2631.154785,747.481384 2620.087646,755.581238 2606.461670,757.136353 
	C2594.312500,758.522949 2581.850586,758.236267 2569.611328,757.419800 
	C2560.338135,756.801270 2556.313721,752.208618 2554.854980,742.670349 
	C2553.777588,735.625916 2553.343994,728.419556 2553.336426,721.284607 
	C2553.241455,629.795166 2553.258545,538.305542 2553.309326,446.815979 
	C2553.312988,440.156952 2553.612793,433.485046 2554.091553,426.841949 
	C2555.274902,410.416565 2559.961670,404.161407 2574.633789,399.940643 
M1467.734131,770.300049 
	C1525.645386,770.300049 1583.556519,770.300049 1641.623901,770.300049 
	C1641.623901,766.857727 1641.623901,763.452515 1641.623901,760.132324 
	C1634.635132,759.052307 1627.863281,758.228760 1621.187134,756.917725 
	C1612.819336,755.274597 1607.592773,749.855103 1605.994629,741.661011 
	C1604.568970,734.350098 1603.379272,726.848938 1603.364380,719.429077 
	C1603.175537,625.965698 1603.179443,532.501770 1603.282104,439.038208 
	C1603.289917,431.909088 1604.043945,424.724640 1605.112793,417.666077 
	C1606.693237,407.229431 1612.102539,401.858063 1622.485962,399.877075 
	C1628.819702,398.668701 1635.237427,397.900818 1641.877075,396.895813 
	C1641.877075,395.082428 1641.877075,393.432465 1641.877075,391.782501 
	C1641.877075,390.018097 1641.877075,388.253693 1641.877075,387.027863 
	C1579.158569,387.027863 1517.091187,387.027863 1454.725342,387.027863 
	C1454.725342,389.979767 1454.725342,393.390991 1454.725342,396.995270 
	C1460.740234,397.871674 1466.685913,398.513977 1472.538818,399.638855 
	C1483.710083,401.785797 1489.268188,407.004211 1490.890259,418.320068 
	C1492.254761,427.838776 1492.917847,437.537231 1492.933960,447.157745 
	C1493.082275,535.123901 1493.046875,623.090454 1492.975952,711.056824 
	C1492.969849,718.706543 1492.574829,726.376831 1491.926392,734.000671 
	C1490.591187,749.700134 1484.736206,755.823914 1469.247437,758.137512 
	C1464.382935,758.864075 1459.482056,759.347595 1454.881836,759.907776 
	C1454.881836,763.887817 1454.881836,767.264648 1454.881836,770.334534 
	C1459.147095,770.334534 1462.969116,770.334534 1467.734131,770.300049 
M2909.942627,618.500000 
	C2909.942383,560.845032 2909.901123,503.189941 2909.990479,445.535065 
	C2910.002441,437.719116 2910.416016,429.882416 2911.085693,422.093323 
	C2912.362061,407.247986 2918.354736,401.114990 2933.071045,399.046722 
	C2938.116943,398.337555 2943.175293,397.714050 2948.446289,397.022797 
	C2948.446289,394.890808 2948.480225,393.242706 2948.437012,391.596649 
	C2948.391113,389.855804 2948.272217,388.116882 2948.217529,387.025757 
	C2885.524658,387.025757 2823.471436,387.025757 2761.345215,387.025757 
	C2761.345215,390.184570 2761.345215,393.589111 2761.345215,396.947876 
	C2767.855469,397.944397 2774.109375,398.829071 2780.336182,399.872131 
	C2789.344727,401.381073 2795.437256,406.676147 2796.845215,415.571198 
	C2798.501953,426.040985 2799.656250,436.712036 2799.682373,447.299103 
	C2799.899414,535.280762 2799.851318,623.263245 2799.732666,711.245239 
	C2799.721191,719.880371 2799.110352,728.565063 2798.048584,737.136475 
	C2796.484375,749.760254 2791.894531,754.682495 2779.640625,757.362732 
	C2773.657715,758.671448 2767.494629,759.156494 2761.325928,760.026611 
	C2761.325928,763.536255 2761.325928,766.962646 2761.325928,769.976807 
	C2823.760986,769.976807 2885.945068,769.976807 2948.225098,769.976807 
	C2948.225098,766.821106 2948.225098,763.538330 2948.225098,759.899902 
	C2942.814697,759.251831 2937.534180,758.814087 2932.322510,757.956604 
	C2919.427490,755.834717 2914.035400,750.744751 2911.685547,737.857300 
	C2910.615723,731.990723 2910.102783,725.946350 2910.072754,719.978943 
	C2909.905518,686.486572 2909.962158,652.993103 2909.942627,618.500000 
z"/>
<path fill="red" opacity="1.000000" stroke="none" 
	d="
M158.545395,753.603638 
	C167.391418,756.006470 175.892899,758.227600 184.772400,760.547546 
	C184.772400,763.401062 184.772400,766.817932 184.772400,769.975647 
	C149.671219,769.975647 114.633560,769.975647 79.330116,769.975647 
	C79.330116,767.019775 79.330116,763.587158 79.330116,759.861206 
	C81.956245,759.122681 84.662682,758.406860 87.341911,757.600586 
	C104.341515,752.485291 113.068611,740.351440 114.869164,723.359558 
	C116.446243,708.476624 117.593033,693.471741 117.645775,678.516235 
	C117.919052,601.019409 117.879326,523.520874 117.664505,446.023682 
	C117.636528,435.931274 116.467560,425.765625 114.910843,415.776642 
	C113.518059,406.839600 107.536369,401.483612 98.553459,399.902924 
	C92.178421,398.781128 85.755836,397.929413 79.320633,396.952026 
	C79.320633,393.413940 79.320633,389.974762 79.320633,387.001404 
	C123.202591,387.001404 166.820801,387.036041 210.438843,386.967499 
	C217.766922,386.955963 225.100845,386.611603 232.418915,386.191742 
	C235.467270,386.016815 236.979080,386.861938 238.312714,389.883453 
	C259.086914,436.950562 280.039795,483.938812 300.959869,530.941528 
	C313.240570,558.533569 325.535675,586.119263 337.828247,613.705994 
	C338.152069,614.432800 338.522156,615.139038 339.308472,616.754150 
	C344.422516,603.590210 349.222748,591.219666 354.033630,578.853149 
	C378.278381,516.531799 402.558319,454.223999 426.679626,391.854828 
	C427.923309,388.639069 429.395966,387.761047 432.722595,387.748932 
	C472.385162,387.604858 512.047058,387.279144 551.709290,387.017395 
	C558.170166,386.974762 564.631653,387.011414 571.407837,387.011414 
	C571.407837,389.966492 571.407837,393.372650 571.407837,396.953186 
	C564.957214,397.922485 558.519714,398.683075 552.167480,399.891479 
	C541.941650,401.836731 536.733704,406.999023 535.081726,417.347931 
	C533.982727,424.232483 533.172180,431.249664 533.163513,438.208618 
	C533.046997,531.872131 533.063293,625.535950 533.171814,719.199524 
	C533.178894,725.332336 533.826233,731.526367 534.831116,737.583252 
	C536.982117,750.546936 542.605530,755.909973 555.702576,757.989380 
	C560.922058,758.818115 566.201416,759.269348 571.518921,759.900208 
	C571.518921,763.610901 571.518921,766.895020 571.518921,769.979797 
	C507.428253,769.979797 443.532562,769.979797 379.281860,769.979797 
	C379.281860,767.201904 379.281860,763.797607 379.281860,759.883789 
	C384.823425,759.292969 390.566284,758.797241 396.276245,758.050171 
	C413.644440,755.777649 420.482880,748.691833 421.958832,731.297607 
	C422.493530,724.996460 422.886169,718.660645 422.890381,712.340393 
	C422.950897,622.009644 422.933685,531.678955 422.935211,441.348236 
	C422.935211,440.243256 422.935211,439.138306 422.935211,438.033325 
	C422.681427,437.972107 422.427673,437.910889 422.173889,437.849670 
	C420.476837,442.065216 418.743256,446.266510 417.088074,450.498444 
	C376.047546,555.428955 335.016113,660.363159 293.977417,765.294434 
	C292.981476,767.840942 292.586487,770.483215 288.470001,770.341553 
	C284.680084,770.211182 282.704315,769.340637 281.091095,765.654053 
	C231.786835,652.978516 182.347504,540.362061 132.919067,427.740875 
	C132.292801,426.313934 131.536423,424.944061 130.093170,423.743073 
	C130.093170,424.491364 130.092850,425.239685 130.093201,425.987976 
	C130.133820,510.651947 129.982193,595.316833 130.392349,679.979004 
	C130.466202,695.223877 131.993622,710.596436 134.428253,725.654846 
	C136.601349,739.095642 144.933594,748.736694 158.545395,753.603638 
z"/>
<path fill="red" opacity="1.000000" stroke="none" 
	d="
M780.172485,382.068787 
	C808.796326,377.801697 837.023010,377.512665 865.189087,381.964722 
	C917.931335,390.301453 962.596863,412.706177 993.759399,457.616180 
	C1010.222900,481.342560 1019.793518,507.899567 1024.065674,536.431030 
	C1028.170044,563.841736 1028.142944,591.208923 1023.135620,618.475403 
	C1008.371277,698.873352 951.425049,757.288635 871.294067,773.059753 
	C819.097961,783.332825 767.793640,779.814392 719.054993,757.078308 
	C671.464172,734.877625 640.013245,697.974854 625.940186,647.403320 
	C611.311035,594.833496 613.095154,542.642395 635.120850,492.166595 
	C654.385193,448.018951 686.812988,416.613312 730.758484,397.004425 
	C746.472351,389.992737 762.934265,385.500732 780.172485,382.068787 
M741.008911,669.423035 
	C742.696228,675.327332 744.177246,681.300049 746.107239,687.123901 
	C753.752686,710.194702 763.765320,731.959839 781.320984,749.444153 
	C807.415588,775.432678 842.643372,774.868042 867.658081,747.881409 
	C881.832886,732.589233 890.547180,714.162048 896.905090,694.572693 
	C909.900085,654.533447 913.358643,613.197571 912.896973,571.411316 
	C912.473633,533.097168 907.669495,495.463531 894.108032,459.333282 
	C886.068848,437.915527 875.269836,418.305145 857.596069,403.092041 
	C834.881958,383.540314 803.963989,383.762634 781.822449,403.867737 
	C764.281677,419.795288 754.303833,440.302277 747.093689,462.323578 
	C734.416687,501.041687 731.029846,541.079163 731.116516,581.512085 
	C731.179443,610.875122 733.699829,640.013000 741.008911,669.423035 
z"/>
<path fill="red" opacity="1.000000" stroke="none" 
	d="
M3183.789062,674.216125 
	C3169.165771,653.388062 3154.749512,632.853577 3139.878418,611.671143 
	C3127.046387,627.753845 3113.927246,642.980652 3102.266602,659.252747 
	C3094.892334,669.543274 3088.940430,681.054749 3083.737061,692.641418 
	C3078.768799,703.704834 3077.603516,715.806091 3080.316162,727.874939 
	C3084.101562,744.716919 3098.051514,755.986694 3118.291260,758.895813 
	C3120.084717,759.153687 3121.876953,759.421326 3123.868164,759.713623 
	C3123.868164,763.412170 3123.868164,766.837219 3123.868164,769.982910 
	C3075.226318,769.982910 3026.664551,769.982910 2977.592285,769.982910 
	C2977.592285,767.644165 2977.375244,764.820190 2977.694580,762.058228 
	C2977.830566,760.881653 2978.835449,759.289490 2979.873291,758.808289 
	C3011.807129,743.998169 3036.288818,720.019836 3058.401367,693.608459 
	C3083.406982,663.741760 3107.348145,632.983643 3131.743896,602.606628 
	C3132.043945,602.233215 3132.233398,601.771118 3132.640137,601.060669 
	C3122.886475,587.117615 3113.076660,573.084045 3103.256592,559.057617 
	C3070.623535,512.446716 3037.991455,465.834900 3005.339355,419.237396 
	C3003.334961,416.376923 3001.126709,413.660278 2999.063477,410.840088 
	C2993.179932,402.798187 2985.575928,397.646790 2975.443359,397.137054 
	C2975.443359,393.229919 2975.443359,389.785400 2975.443359,386.860535 
	C3037.258057,386.860535 3098.834961,386.860535 3161.021484,386.860535 
	C3161.021484,387.804840 3161.021240,389.571747 3161.021240,391.338684 
	C3161.021240,393.151917 3161.021484,394.965179 3161.021484,396.752899 
	C3153.134766,397.497955 3145.564209,398.176270 3138.004395,398.959137 
	C3136.534668,399.111328 3135.069580,399.564209 3133.666504,400.060059 
	C3127.357910,402.290009 3125.710205,406.197205 3129.081055,412.054932 
	C3131.560547,416.364044 3134.624268,420.341675 3137.491211,424.422363 
	C3161.495117,458.586334 3185.514160,492.739990 3209.891113,527.412659 
	C3211.387939,525.624207 3212.772705,524.060913 3214.058350,522.420044 
	C3228.013916,504.609497 3242.270020,487.021820 3255.756104,468.862366 
	C3261.902344,460.586273 3265.466064,450.787567 3267.255615,440.454041 
	C3271.125000,418.112457 3258.512939,400.963684 3235.917236,398.059998 
	C3234.113525,397.828217 3232.315918,397.551239 3230.269043,397.260254 
	C3230.269043,393.651001 3230.269043,390.237823 3230.269043,387.042664 
	C3271.620850,387.042664 3312.996338,387.042664 3355.000000,387.042664 
	C3355.000000,389.323425 3355.173096,392.281860 3354.905762,395.199982 
	C3354.812500,396.219299 3353.849121,397.617157 3352.919678,398.035217 
	C3324.773193,410.697784 3303.936768,432.204407 3284.582764,455.227600 
	C3261.764893,482.371124 3239.595703,510.060028 3216.987549,537.705566 
	C3228.416016,553.923401 3239.797607,570.105530 3251.211426,586.264954 
	C3286.532959,636.272278 3321.855713,686.278503 3357.216309,736.258057 
	C3359.905273,740.058411 3362.896484,743.644592 3365.739746,747.336121 
	C3371.263184,754.507263 3378.081543,759.345886 3387.765869,759.192383 
	C3387.765869,763.059937 3387.765869,766.663025 3387.765869,769.693237 
	C3325.671875,769.693237 3263.630127,769.693237 3201.174072,769.693237 
	C3201.174072,766.969360 3201.174072,763.287048 3201.174072,759.536926 
	C3207.702148,759.112244 3214.146973,758.694702 3220.591553,758.270569 
	C3221.089844,758.237793 3221.586670,758.169556 3222.081543,758.100342 
	C3234.761719,756.326843 3237.348145,750.795837 3230.087402,740.345703 
	C3214.801758,718.346130 3199.368652,696.448975 3183.789062,674.216125 
z"/>
<path fill="red" opacity="1.000000" stroke="none" 
	d="
M1972.173462,684.171448 
	C1977.592651,665.852173 1982.883667,647.900085 1988.246460,629.704590 
	C1991.199829,629.704590 1994.994263,629.704590 1999.123413,629.704590 
	C1996.975952,676.701416 1997.324829,723.443054 2001.340332,770.005859 
	C1896.691772,770.005859 1792.303467,770.005859 1687.514282,770.005859 
	C1687.514282,767.251221 1687.514282,763.856201 1687.514282,759.856812 
	C1691.645996,759.391846 1696.062256,759.029053 1700.435913,758.379150 
	C1717.889893,755.785217 1723.321045,750.127136 1724.868408,732.552917 
	C1725.481323,725.590637 1725.805298,718.579834 1725.810303,711.590820 
	C1725.873779,623.432251 1725.944946,535.273438 1725.736694,447.115295 
	C1725.712036,436.691559 1724.563965,426.191101 1722.975952,415.874084 
	C1721.569214,406.733704 1715.413574,401.359497 1706.206665,399.828339 
	C1699.981812,398.793060 1693.730957,397.912933 1687.301758,396.934509 
	C1687.301758,393.580200 1687.301758,390.285034 1687.301758,387.031799 
	C1788.150635,387.031799 1889.020752,387.031799 1990.481934,387.031799 
	C1988.016846,429.583771 1985.167358,472.722046 1988.312012,515.926514 
	C1987.550781,516.170837 1987.095459,516.439453 1986.637085,516.444458 
	C1983.311279,516.480774 1979.984741,516.463989 1976.241699,516.463989 
	C1974.813721,509.472107 1973.507202,502.503021 1971.956177,495.588745 
	C1967.235352,474.542664 1960.752686,454.110138 1947.884888,436.468079 
	C1931.067261,413.410400 1908.680908,399.868286 1879.626099,399.064880 
	C1870.998169,398.826324 1862.302368,399.220551 1853.707886,400.052032 
	C1842.908691,401.096863 1838.231323,406.127350 1836.986206,417.032776 
	C1836.439453,421.821930 1836.032715,426.657715 1836.024902,431.473053 
	C1835.950439,477.302063 1835.975586,523.131226 1835.972046,568.960388 
	C1835.971924,569.774475 1835.971924,570.588501 1835.971924,571.757690 
	C1855.366821,573.331421 1871.810547,567.163147 1885.466919,553.876526 
	C1900.599976,539.153381 1910.727783,521.452698 1915.192261,500.431702 
	C1919.180054,500.431702 1923.095947,500.431702 1927.541016,500.431702 
	C1924.836426,551.698425 1925.669189,602.880432 1929.390991,654.271973 
	C1925.055542,654.271973 1921.260864,654.271973 1917.357300,654.271973 
	C1907.118286,611.743958 1884.711548,582.806335 1836.296143,582.489746 
	C1836.165039,584.205750 1835.983154,585.475830 1835.983032,586.745972 
	C1835.978760,633.575012 1835.923096,680.404236 1836.087036,727.232727 
	C1836.107910,733.175415 1836.908813,739.187988 1838.041382,745.033936 
	C1839.218018,751.108215 1843.481201,755.559204 1849.422852,756.274048 
	C1871.906616,758.979248 1894.663696,761.739136 1916.068237,751.374329 
	C1935.338501,742.043030 1949.750854,727.129700 1960.374268,708.715881 
	C1964.834229,700.985352 1968.188354,692.616943 1972.173462,684.171448 
z"/>
<path fill="red" opacity="1.000000" stroke="none" 
	d="
M2072.051514,464.198669 
	C2079.452393,423.614410 2105.690674,400.971649 2142.508545,388.591339 
	C2176.048340,377.313232 2210.451660,376.279205 2245.089844,382.099976 
	C2262.273193,384.987518 2278.010498,392.238403 2293.340820,400.336609 
	C2297.880859,402.734894 2302.440430,405.205566 2307.235596,406.983917 
	C2313.558594,409.328705 2317.541016,407.527618 2319.870361,401.139954 
	C2321.841553,395.734589 2322.939697,390.011017 2324.440674,384.367065 
	C2328.143799,384.367065 2331.925537,384.367065 2335.542480,384.367065 
	C2334.802979,428.321350 2334.066650,472.070099 2333.324463,516.167297 
	C2329.484863,516.167297 2325.400879,516.167297 2321.047363,516.167297 
	C2319.453125,496.818054 2315.437744,478.021667 2307.987549,460.074799 
	C2297.672119,435.225861 2283.234375,413.548065 2258.599609,400.833252 
	C2240.090820,391.280212 2220.482910,390.414246 2201.077393,397.925018 
	C2180.598633,405.851166 2170.290527,424.265839 2171.225098,446.148590 
	C2172.255127,470.257263 2184.654053,487.607117 2202.605957,501.507812 
	C2220.742920,515.551697 2239.776611,528.432678 2258.323730,541.952087 
	C2279.827881,557.627319 2302.478027,571.953796 2321.071533,591.222107 
	C2353.414551,624.738708 2363.489502,663.972107 2347.703857,708.262329 
	C2339.700928,730.716064 2322.456543,745.808899 2301.950928,757.125427 
	C2282.758301,767.717285 2261.812256,772.943970 2240.299561,775.802490 
	C2214.910645,779.176025 2189.443604,779.108276 2164.117676,775.026306 
	C2143.986328,771.781494 2124.741699,765.677856 2106.812744,755.737793 
	C2103.922119,754.135315 2100.874023,752.727600 2097.754395,751.646240 
	C2090.706299,749.203003 2086.767822,751.121033 2084.133057,758.165161 
	C2083.208008,760.638367 2082.612061,763.249084 2082.038574,765.835266 
	C2081.464111,768.425354 2081.104980,771.063171 2080.580078,774.093140 
	C2076.611084,774.093140 2072.578125,774.093140 2068.908691,774.093140 
	C2069.455566,721.929626 2070.001465,669.835632 2070.551270,617.369019 
	C2074.390137,617.369019 2078.420166,617.369019 2081.935791,617.369019 
	C2084.308350,633.271362 2086.205322,649.106384 2089.125977,664.750305 
	C2092.553223,683.105225 2098.789062,700.587830 2107.468506,717.208313 
	C2123.413818,747.742126 2148.965576,761.897827 2182.885986,761.950378 
	C2194.799561,761.968872 2206.403076,760.155945 2217.341064,755.090271 
	C2237.077881,745.949707 2247.525391,728.353699 2246.776611,706.675110 
	C2245.974121,683.461182 2236.761475,664.373718 2220.252441,648.314575 
	C2204.180664,632.680420 2186.001465,619.834412 2167.820068,606.875183 
	C2148.329834,592.982910 2128.532715,579.313171 2110.417725,563.745239 
	C2080.310059,537.871338 2066.116211,504.911804 2072.051514,464.198669 
z"/>
<path fill="red" opacity="1.000000" stroke="none" 
	d="
M1152.211182,624.772095 
	C1124.703491,559.246887 1097.372559,494.064728 1069.925903,428.931335 
	C1067.873779,424.061523 1065.276245,419.360626 1062.436890,414.896301 
	C1056.959717,406.284485 1050.206543,399.076294 1039.334473,397.158478 
	C1039.334473,393.520386 1039.334473,390.116608 1039.334473,387.025574 
	C1102.575317,387.025574 1165.616577,387.025574 1228.939941,387.025574 
	C1228.939941,390.005524 1228.939941,393.418182 1228.939941,396.660431 
	C1220.633423,398.047546 1212.376709,399.012543 1204.327515,400.874695 
	C1194.156494,403.227783 1189.636963,409.680969 1191.615845,419.991760 
	C1193.292847,428.729980 1195.771729,437.462616 1199.098389,445.712769 
	C1229.311157,520.639893 1259.787231,595.460876 1290.194580,670.309509 
	C1290.560425,671.209961 1291.033813,672.066772 1291.804199,673.663330 
	C1295.524170,663.292908 1299.082397,653.504639 1302.550171,643.684448 
	C1318.849609,597.526855 1335.441284,551.468750 1351.267944,505.149506 
	C1358.655396,483.529144 1363.500244,461.241821 1362.005615,438.058258 
	C1360.640381,416.883575 1349.745850,403.512207 1329.522339,398.679626 
	C1325.843018,397.800415 1321.996460,397.621124 1318.163818,397.110291 
	C1318.163818,393.464233 1318.163818,390.034821 1318.163818,387.034180 
	C1355.663574,387.034180 1392.912476,387.034180 1430.309326,387.034180 
	C1432.199097,394.635986 1431.498901,396.210083 1424.738403,400.937744 
	C1407.624390,412.905701 1395.037231,428.969666 1387.237671,447.944885 
	C1375.325928,476.924194 1364.700439,506.449493 1354.116333,535.953796 
	C1326.608887,612.634460 1299.387329,689.417786 1272.210693,766.216370 
	C1270.898682,769.923950 1269.380981,770.644653 1265.574951,770.563293 
	C1249.761841,770.225586 1233.932007,770.229980 1218.119995,770.602051 
	C1214.432373,770.688843 1213.036743,769.760193 1211.673706,766.493713 
	C1191.993408,719.333496 1172.157593,672.238159 1152.211182,624.772095 
z"/>
<path fill="red" opacity="1.000000" stroke="none" 
	d="
M2574.218750,399.988037 
	C2559.961670,404.161407 2555.274902,410.416565 2554.091553,426.841949 
	C2553.612793,433.485046 2553.312988,440.156952 2553.309326,446.815979 
	C2553.258545,538.305542 2553.241455,629.795166 2553.336426,721.284607 
	C2553.343994,728.419556 2553.777588,735.625916 2554.854980,742.670349 
	C2556.313721,752.208618 2560.338135,756.801270 2569.611328,757.419800 
	C2581.850586,758.236267 2594.312500,758.522949 2606.461670,757.136353 
	C2620.087646,755.581238 2631.154785,747.481384 2641.009033,738.359863 
	C2673.198486,708.564575 2693.746338,672.038757 2703.133301,629.210632 
	C2703.485596,627.603943 2703.929199,626.017334 2704.381104,624.218750 
	C2708.345459,624.218750 2712.295410,624.218750 2716.662354,624.218750 
	C2713.910400,672.984070 2715.093994,721.649414 2718.708984,770.008301 
	C2614.245605,770.008301 2509.841553,770.008301 2405.053955,770.008301 
	C2405.053955,767.194702 2405.053955,763.808655 2405.053955,759.882385 
	C2409.956299,759.292542 2415.038086,758.813477 2420.076904,758.049683 
	C2434.677490,755.836731 2440.607666,749.584839 2441.950684,734.793945 
	C2442.552490,728.166870 2443.041016,721.500977 2443.043945,714.852478 
	C2443.083496,621.863342 2443.085449,528.874146 2442.885742,435.885376 
	C2442.870850,428.963623 2441.711182,421.946167 2440.256592,415.150330 
	C2438.409912,406.523224 2432.618896,401.371857 2423.858643,399.872070 
	C2417.641602,398.807709 2411.389160,397.952087 2404.911621,396.966705 
	C2404.911621,393.511322 2404.911621,390.093903 2404.911621,387.020935 
	C2469.029541,387.020935 2532.910156,387.020935 2597.041992,387.020935 
	C2597.041992,389.906128 2597.041992,393.176727 2597.041992,396.940216 
	C2589.655273,397.929321 2582.144531,398.934967 2574.218750,399.988037 
z"/>
<path fill="red" opacity="1.000000" stroke="none" 
	d="
M1467.262695,770.317261 
	C1462.969116,770.334534 1459.147095,770.334534 1454.881836,770.334534 
	C1454.881836,767.264648 1454.881836,763.887817 1454.881836,759.907776 
	C1459.482056,759.347595 1464.382935,758.864075 1469.247437,758.137512 
	C1484.736206,755.823914 1490.591187,749.700134 1491.926392,734.000671 
	C1492.574829,726.376831 1492.969849,718.706543 1492.975952,711.056824 
	C1493.046875,623.090454 1493.082275,535.123901 1492.933960,447.157745 
	C1492.917847,437.537231 1492.254761,427.838776 1490.890259,418.320068 
	C1489.268188,407.004211 1483.710083,401.785797 1472.538818,399.638855 
	C1466.685913,398.513977 1460.740234,397.871674 1454.725342,396.995270 
	C1454.725342,393.390991 1454.725342,389.979767 1454.725342,387.027863 
	C1517.091187,387.027863 1579.158569,387.027863 1641.877075,387.027863 
	C1641.877075,388.253693 1641.877075,390.018097 1641.877075,391.782501 
	C1641.877075,393.432465 1641.877075,395.082428 1641.877075,396.895813 
	C1635.237427,397.900818 1628.819702,398.668701 1622.485962,399.877075 
	C1612.102539,401.858063 1606.693237,407.229431 1605.112793,417.666077 
	C1604.043945,424.724640 1603.289917,431.909088 1603.282104,439.038208 
	C1603.179443,532.501770 1603.175537,625.965698 1603.364380,719.429077 
	C1603.379272,726.848938 1604.568970,734.350098 1605.994629,741.661011 
	C1607.592773,749.855103 1612.819336,755.274597 1621.187134,756.917725 
	C1627.863281,758.228760 1634.635132,759.052307 1641.623901,760.132324 
	C1641.623901,763.452515 1641.623901,766.857727 1641.623901,770.300049 
	C1583.556519,770.300049 1525.645386,770.300049 1467.262695,770.317261 
z"/>
<path fill="red" opacity="1.000000" stroke="none" 
	d="
M2909.942627,619.000000 
	C2909.962158,652.993103 2909.905518,686.486572 2910.072754,719.978943 
	C2910.102783,725.946350 2910.615723,731.990723 2911.685547,737.857300 
	C2914.035400,750.744751 2919.427490,755.834717 2932.322510,757.956604 
	C2937.534180,758.814087 2942.814697,759.251831 2948.225098,759.899902 
	C2948.225098,763.538330 2948.225098,766.821106 2948.225098,769.976807 
	C2885.945068,769.976807 2823.760986,769.976807 2761.325928,769.976807 
	C2761.325928,766.962646 2761.325928,763.536255 2761.325928,760.026611 
	C2767.494629,759.156494 2773.657715,758.671448 2779.640625,757.362732 
	C2791.894531,754.682495 2796.484375,749.760254 2798.048584,737.136475 
	C2799.110352,728.565063 2799.721191,719.880371 2799.732666,711.245239 
	C2799.851318,623.263245 2799.899414,535.280762 2799.682373,447.299103 
	C2799.656250,436.712036 2798.501953,426.040985 2796.845215,415.571198 
	C2795.437256,406.676147 2789.344727,401.381073 2780.336182,399.872131 
	C2774.109375,398.829071 2767.855469,397.944397 2761.345215,396.947876 
	C2761.345215,393.589111 2761.345215,390.184570 2761.345215,387.025757 
	C2823.471436,387.025757 2885.524658,387.025757 2948.217529,387.025757 
	C2948.272217,388.116882 2948.391113,389.855804 2948.437012,391.596649 
	C2948.480225,393.242706 2948.446289,394.890808 2948.446289,397.022797 
	C2943.175293,397.714050 2938.116943,398.337555 2933.071045,399.046722 
	C2918.354736,401.114990 2912.362061,407.247986 2911.085693,422.093323 
	C2910.416016,429.882416 2910.002441,437.719116 2909.990479,445.535065 
	C2909.901123,503.189941 2909.942383,560.845032 2909.942627,619.000000 
z"/>
<path fill="none" opacity="1.000000" stroke="none" 
	d="
M740.940430,669.013550 
	C733.699829,640.013000 731.179443,610.875122 731.116516,581.512085 
	C731.029846,541.079163 734.416687,501.041687 747.093689,462.323578 
	C754.303833,440.302277 764.281677,419.795288 781.822449,403.867737 
	C803.963989,383.762634 834.881958,383.540314 857.596069,403.092041 
	C875.269836,418.305145 886.068848,437.915527 894.108032,459.333282 
	C907.669495,495.463531 912.473633,533.097168 912.896973,571.411316 
	C913.358643,613.197571 909.900085,654.533447 896.905090,694.572693 
	C890.547180,714.162048 881.832886,732.589233 867.658081,747.881409 
	C842.643372,774.868042 807.415588,775.432678 781.320984,749.444153 
	C763.765320,731.959839 753.752686,710.194702 746.107239,687.123901 
	C744.177246,681.300049 742.696228,675.327332 740.940430,669.013550 
z"/>
</svg>